<svg class="img-fluid" id="outputsvg" xmlns="http://www.w3.org/2000/svg" style="transform: matrix(1, 0, 0, 1, 0, 0); transform-origin: 50% 50%; cursor: move; max-height: none; transition: transform 200ms ease-in-out;" width="1181" height="1181" viewBox="0 0 11810 11810"><g id="l4OfiuuIWDL4udYUtNALVNx" fill="rgb(63,63,70)" style="transform: none;"><g style="transform: none;"><path id="p1NXC84Me" d="M4195 10090 l-1710 -1710 915 0 915 0 790 790 c434 435 794 790 800 790 13 0 1565 -1552 1565 -1565 0 -5 -1118 -1128 -2485 -2495 l-2485 -2485 1703 -1703 1702 -1702 1710 1710 1710 1710 -915 0 -915 0 -790 -790 c-434 -434 -794 -790 -800 -790 -13 0 -1565 1552 -1565 1565 0 5 1118 1128 2485 2495 l2485 2485 -1703 1703 -1702 1702 -1710 -1710z"></path><path id="p5smeg7aR" d="M767 6672 c-416 -416 -757 -762 -757 -767 0 -6 343 -353 763 -773 l762 -762 765 0 765 0 -763 763 c-419 419 -762 767 -762 772 0 5 341 351 757 767 l758 758 -765 0 -765 0 -758 -758z"></path><path id="p9ofWfmid" d="M9513 6672 c416 -416 757 -762 757 -767 0 -5 -343 -353 -762 -772 l-763 -763 765 0 765 0 763 763 c419 419 762 767 762 772 0 6 -341 351 -758 768 l-757 757 -765 0 -765 0 758 -758z"></path></g></g></svg>